<?xml version="1.0" encoding="utf-8"?>
<!-- Generator: Adobe Illustrator 25.1.0, SVG Export Plug-In . SVG Version: 6.00 Build 0)  -->
<svg version="1.1" id="Calque_1" xmlns="http://www.w3.org/2000/svg" xmlns:xlink="http://www.w3.org/1999/xlink" x="0px" y="0px"
	 viewBox="0 0 16 16" style="enable-background:new 0 0 16 16;" xml:space="preserve">
<style type="text/css">
	.st0{fill:url(#SVGID_1_);}
	.st1{fill:#1DBCC0;}
	.st2{fill:#EDC20F;}
	.st3{fill:url(#SVGID_2_);}
	.st4{opacity:8.000000e-02;clip-path:url(#SVGID_4_);fill:#231F20;}
</style>
<g>
	<g>
		<g>
			<g>
				<g>
					<linearGradient id="SVGID_1_" gradientUnits="userSpaceOnUse" x1="12.5976" y1="15.0719" x2="5.7905" y2="3.2817">
						<stop  offset="0" style="stop-color:#EDC20F"/>
						<stop  offset="1" style="stop-color:#1DBCC0"/>
					</linearGradient>
					<path class="st0" d="M13.9,9.2c0,2.6-2.1,4.7-4.7,4.7s-4.7-2.1-4.7-4.7s2.1-4.7,4.7-4.7S13.9,6.6,13.9,9.2z M9.2,2.4
						c-3.8,0-6.8,3-6.8,6.8s3,6.8,6.8,6.8s6.8-3,6.8-6.8S13,2.4,9.2,2.4z"/>
				</g>
			</g>
		</g>
		<path class="st1" d="M0.8,9.9C0.3,9.9,0,9.6,0,9.2C0,4.1,4.1,0,9.2,0c0.4,0,0.8,0.3,0.8,0.8S9.6,1.5,9.2,1.5C5,1.5,1.5,5,1.5,9.2
			C1.5,9.6,1.2,9.9,0.8,9.9z"/>
		<path class="st2" d="M9.2,12.8c-2,0-3.7-1.7-3.7-3.7s1.7-3.7,3.7-3.7s3.7,1.7,3.7,3.7S11.2,12.8,9.2,12.8z M9.2,7C8,7,7,8,7,9.1
			s1,2.2,2.2,2.2s2.2-1,2.2-2.2S10.4,7,9.2,7z"/>
		<circle class="st1" cx="9.2" cy="9.2" r="1"/>
	</g>
</g>
</svg>
