<?xml version="1.0" encoding="utf-8"?>
<svg viewBox="0 0 156 156" fill="none" xmlns="http://www.w3.org/2000/svg">
<path
fill-rule="evenodd"
clip-rule="evenodd"
d="M18.3391 3.07538C14.2385 -1.02513 7.59031 -1.02513 3.48981 3.07538C-0.610696 7.17588 -0.610696 13.8241 3.48981 17.9246L16.8443 31.2791C7.01356 44.1487 1.1742 60.23 1.1742 77.6752C1.1742 94.9079 6.87222 110.81 16.487 123.6L3.07538 137.011C-1.02513 141.112 -1.02513 147.76 3.07538 151.861C7.17588 155.961 13.8241 155.961 17.9246 151.861L31.2793 138.506C44.1486 148.336 60.2295 154.175 77.6742 154.175C94.907 154.175 110.809 148.477 123.599 138.862L137.011 152.275C141.112 156.375 147.76 156.375 151.861 152.275C155.961 148.174 155.961 141.526 151.861 137.426L138.505 124.07C148.335 111.201 154.174 95.1199 154.174 77.6752C154.174 60.4429 148.477 44.5414 138.862 31.7518L152.275 18.3391C156.375 14.2385 156.375 7.59031 152.275 3.48981C148.174 -0.610697 141.526 -0.610696 137.426 3.48981L124.07 16.8453C111.201 7.01454 95.1194 1.17517 77.6742 1.17517C60.4419 1.17517 44.5404 6.87287 31.7508 16.4871L18.3391 3.07538ZM33.3179 47.7528L47.3304 61.7652C51.4309 65.8657 58.0792 65.8657 62.1797 61.7652C66.2802 57.6647 66.2802 51.0165 62.1797 46.916L48.2499 32.9863C56.6915 27.4169 66.8043 24.1752 77.6742 24.1752C88.7588 24.1752 99.056 27.5462 107.597 33.3189L93.5851 47.3304C89.4846 51.4309 89.4846 58.0792 93.5851 62.1797C97.6856 66.2802 104.334 66.2802 108.434 62.1797L122.363 48.2509C127.932 56.6925 131.174 66.8053 131.174 77.6752C131.174 88.7592 127.803 99.056 122.031 107.596L108.02 93.5851C103.919 89.4846 97.2712 89.4846 93.1707 93.5851C89.0702 97.6856 89.0702 104.334 93.1707 108.434L107.1 122.363C98.6578 127.933 88.5446 131.175 77.6742 131.175C66.5901 131.175 56.2933 127.804 47.7529 122.032L61.7652 108.02C65.8657 103.919 65.8657 97.2712 61.7652 93.1707C57.6647 89.0702 51.0165 89.0702 46.916 93.1707L32.9861 107.101C27.4162 98.6588 24.1742 88.5456 24.1742 77.6752C24.1742 66.5906 27.5452 56.2934 33.3179 47.7528ZM89.1742 77.6754C89.1742 71.3241 84.0255 66.1754 77.6742 66.1754C71.3229 66.1754 66.1742 71.3241 66.1742 77.6754C66.1742 84.0267 71.3229 89.1754 77.6742 89.1754C84.0255 89.1754 89.1742 84.0267 89.1742 77.6754Z"
fill="#4A5568"/>
</svg>
