<svg id="Layer_1" data-name="Layer 1" xmlns="http://www.w3.org/2000/svg" viewBox="0 0 180 180">
    <style>
		path, rect {
			fill: #000000;
		}
		@media ( prefers-color-scheme: dark ) {
			path, rect {
				fill: #FFFFFF;
			}
		}
	</style>
    <path d="M89.00025,172.56128A83,83,0,1,1,172,89.56153,83.09414,83.09414,0,0,1,89.00025,172.56128Zm0-161.901A78.901,78.901,0,1,0,167.901,89.56153,78.99056,78.99056,0,0,0,89.00025,10.66028Z"/>
    <path d="M71.46592,62.95606A12.149,12.149,0,1,1,83.4602,48.72714h0A12.16183,12.16183,0,0,1,73.57,62.77392,12.33488,12.33488,0,0,1,71.46592,62.95606Zm.029-20.19979a8.04872,8.04872,0,1,0,7.9263,6.67239A8.06251,8.06251,0,0,0,71.49494,42.75627Z"/>
    <path d="M62.08105,139.01072a12.14946,12.14946,0,1,1,11.99478-14.22891v.0005a12.16234,12.16234,0,0,1-9.89024,14.04628A12.33627,12.33627,0,0,1,62.08105,139.01072Zm.04353-20.20128a8.11838,8.11838,0,0,0-1.394.12109,8.04818,8.04818,0,1,0,9.30631,6.55229v.0005a8.05383,8.05383,0,0,0-7.91229-6.67388Z"/>
    <path d="M133.40475,109.24894A12.14818,12.14818,0,1,1,145.37851,95.022v.0005a12.15306,12.15306,0,0,1-11.97376,14.22641Zm.02252-20.19929a8.04959,8.04959,0,1,0,7.91229,6.67339v.0005a8.05386,8.05386,0,0,0-7.91229-6.67389Z"/>
    <rect x="37.16808" y="86.40628" width="56.75301" height="4.09888" transform="translate(-30.27754 142.66482) rotate(-82.96)"/>
    <rect x="69.20576" y="110.30602" width="57.27192" height="4.09888" transform="translate(-34.72673 44.36753) rotate(-21.79881)"/>
    <rect x="101.20808" y="44.69389" width="4.09871" height="56.41989" transform="matrix(0.62866, -0.77768, 0.77768, 0.62866, -18.35228, 107.3733)"/>
</svg>