<svg viewBox="0 0 158 213" fill="none" xmlns="http://www.w3.org/2000/svg">
    <g clip-path="url(#clip0_46_2)">
        <path d="M157.213 140.41C157.063 132.36 153.833 129.16 145.703 128.98C142.223 128.9 130.463 128.95 128.053 128.93C120.263 128.86 119.073 119.77 119.053 114.36C119.053 112.06 119.073 98.8 119.053 95.62C118.963 86.1 116.413 83.48 107.163 83.42C100.933 83.38 58.5529 83.4 51.5629 83.42C49.6029 83.42 47.4629 82.39 45.7029 80.58C43.6129 78.44 42.3329 75.52 42.3729 72.96C42.4629 66.02 42.4429 58.97 42.4129 52.38C42.4029 50.26 43.4929 47.88 45.3329 46C47.0129 44.29 49.0829 43.27 50.8829 43.27C64.2329 43.23 146.353 43.43 146.353 43.43C149.883 43.48 152.613 42.57 154.463 40.72C156.303 38.89 157.233 36.21 157.233 32.73C157.233 27.25 157.203 12.65 157.233 10.99C157.283 7.42 156.383 4.67 154.553 2.8C152.743 0.949995 150.083 0 146.643 0H50.8929C44.2129 0 40.5229 3.73 40.5229 10.49C40.5229 14.47 40.5929 28.86 40.5929 31.5C40.5929 34.14 39.3529 37.05 37.2529 39.15C35.4729 40.93 33.3129 41.91 31.1729 41.91H31.0929C24.7329 41.84 18.4129 41.87 11.4029 41.91C7.90287 41.93 5.19287 42.9 3.36287 44.78C1.54287 46.64 0.632876 49.34 0.662876 52.8C0.692876 55.75 0.662875 68.53 0.692875 71.98C0.802875 80.78 3.73287 83.79 12.2929 83.91C15.5829 83.95 27.3329 83.91 29.9329 83.94C36.3129 83.99 40.3829 88.59 40.5429 95.93C40.6129 99.26 40.5129 112.04 40.5129 113.93C40.5129 125.13 42.7629 127.4 53.9129 127.4C59.8929 127.4 95.1329 127.37 106.783 127.44C108.823 127.44 115.473 128.51 115.553 141.63C115.583 146.84 115.573 152.42 115.513 158.71C115.453 165.44 110.413 170.73 104.043 170.76H9.54287C6.65287 170.92 4.52287 171.8 2.90287 173.41C1.07287 175.24 0.132877 177.92 0.132877 181.4C0.132877 185.05 0.0628723 198.78 0.00287234 201.92C-0.0571277 205.42 0.822872 208.15 2.64287 210.03C4.38287 211.83 6.86288 212.76 10.0329 212.76H105.563C108.873 212.75 111.463 211.83 113.233 210.02C115.003 208.21 115.893 205.59 115.863 202.23C115.863 202.23 115.753 189 115.843 183.1C115.933 176.57 121.173 171.19 127.523 171.1C132.013 171.04 144.653 171.09 146.473 171.09H146.493C150.003 171.09 152.713 170.14 154.543 168.28C156.363 166.43 157.273 163.74 157.243 160.27C157.223 157.52 157.283 144.27 157.213 140.39" fill="#1439C1"/>
    </g>
    <defs>
        <clipPath id="clip0_46_2">
            <rect width="157.25" height="212.76" fill="white"/>
        </clipPath>
    </defs>
</svg>
