<svg xmlns="http://www.w3.org/2000/svg" width="204" height="153" viewBox="0 0 204 153">
    <g fill="none" fill-rule="evenodd">
        <path fill="#1DBCC0" fill-rule="nonzero" d="M86.8 5.324C78.51 2.264 69.749-.298 60.804.028c-13.16.47-25.765 7.65-31.957 18.195-5.246 8.933-5.893 19.404-8.153 29.317-2.784 12.215-8.115 23.823-13.812 35.176-3.06 6.089-6.288 12.326-6.79 19.01-.698 9.28 2.304 17.5 19.208 28.405 16.903 10.904 60.871 8.683 69.865 8.683 8.993 0 44.958-.118 54.665-1.477s20.132-6.808 25.224-11.78a212.753 212.753 0 0 0 22.797-26.183c4.593-6.246 8.867-12.835 10.899-20.115 3.88-13.916-1.461-29.619-13.315-39.125-9.814-7.873-22.995-11.291-35.894-13.365-11.762-1.891-25.362-2.009-36.19-6.938-10.327-4.708-19.722-10.51-30.55-14.507z" opacity=".387"/>
        <g transform="translate(31 18)">
            <ellipse cx="68.392" cy="132" fill="#E5EAEA" fill-rule="nonzero" opacity=".48" rx="52.5" ry="3" style="mix-blend-mode:multiply"/>
            <path fill="#41599B" fill-rule="nonzero" d="M89.892 127.56V129h-42v-1.169c5.238-1.966 8.79-6.937 8.998-12.594.208-5.656-2.969-10.881-8.048-13.237h40.765c-4.96 2.301-8.118 7.347-8.056 12.874.061 5.528 3.33 10.5 8.341 12.687z"/>
            <path fill="#000" fill-rule="nonzero" d="M90.892 102c-3.91 1.523-6.798 4.463-7.86 8h-26.28c-1.062-3.537-3.95-6.477-7.86-8h42z" opacity=".1"/>
            <path fill="#41599B" fill-rule="nonzero" d="M.892 94v9.001c0 4.97 3.223 8.999 7.199 8.999h123.602c3.976 0 7.199-4.029 7.199-8.999V94h-138z"/>
            <path fill="#000" fill-rule="nonzero" d="M89.892 128.026V130h-42v-1.603c1.151-.595 2.24-1.401 3.238-2.397h36.187c.804.801 1.667 1.48 2.575 2.026z" opacity=".1"/>
            <rect width="71" height="4" x="33.892" y="126" fill="#41599B" fill-rule="nonzero" rx="2"/>
            <path fill="#41599B" fill-rule="nonzero" d="M138.892 7.254c-.005-4.009-3.227-7.255-7.199-7.254H8.096C4.122-.004.897 3.243.892 7.254V97h138V7.254z"/>
            <path fill="#FFF" fill-rule="nonzero" d="M134.892 9.565v76.87c0 .946-.374 1.853-1.042 2.521A3.555 3.555 0 0 1 131.334 90H7.45c-.943 0-1.849-.375-2.516-1.044a3.569 3.569 0 0 1-1.042-2.521V9.565A3.562 3.562 0 0 1 7.45 6h123.874a3.555 3.555 0 0 1 2.523 1.041 3.568 3.568 0 0 1 1.045 2.524z"/>
            <circle cx="69.892" cy="4" r="2" fill="#FFF" fill-rule="nonzero"/>
            <circle cx="69.892" cy="105" r="4" fill="#FFF" fill-rule="nonzero"/>
            <path fill="#F7F7F7" fill-rule="nonzero" d="M33.892 10v80H7.53c-.965 0-1.89-.38-2.573-1.055a3.585 3.585 0 0 1-1.065-2.55V10h30z"/>
            <path fill="#284483" fill-rule="nonzero" d="M33.892 11v8h-30v-7.477L4.018 11z"/>
            <path fill="#FFF" fill-rule="nonzero" d="M134.892 10h-131c0-1.061.375-2.079 1.042-2.83C5.602 6.42 6.507 6 7.45 6h123.874c.946-.003 1.853.417 2.522 1.167.67.75 1.046 1.77 1.046 2.833z"/>
            <circle cx="8.392" cy="7.5" r="1" fill="#5B6FB3" fill-rule="nonzero" opacity=".5"/>
            <circle cx="9.392" cy="7.5" r="1" fill="#5B6FB3" fill-rule="nonzero" opacity=".5"/>
            <circle cx="14.392" cy="7.5" r="1" fill="#5B6FB3" fill-rule="nonzero" opacity=".5"/>
            <path fill="#5B6FB3" fill-rule="nonzero" d="M8.892 14h19v1h-19z"/>
            <path fill="#5B6FB3" fill-rule="nonzero" d="M8.892 21h19v1h-19zM8.892 28h19v1h-19zM8.892 33h19v1h-19zM8.892 39h19v1h-19zM8.892 47h19v1h-19zM8.892 52h19v1h-19zM8.892 57h19v1h-19z" opacity=".5"/>
            <path fill="#DCE0ED" fill-rule="nonzero" d="M45.892 19h82v1h-82zM45.892 25h82v1h-82zM45.892 31h82v1h-82zM45.892 38h82v1h-82zM45.892 45h82v1h-82z" opacity=".5"/>
            <path fill="#1DBCC0" d="M45.892 33.916V46h82V27.143c-2.37-2.095-5.197-3.143-8.482-3.143-4.927 0-10.774 9.916-17.376 9.916-6.602 0-10.457-7.3-18.361-7.3S70.307 38.138 60.976 38.138c-6.221 0-11.249-1.407-15.084-4.222z" opacity=".213"/>
            <path fill="#5B6FB3" fill-rule="nonzero" stroke="#5B6FB3" d="M60.166 39c-7.374 0-14.19-4.797-14.274-4.86l.202-.32c.106.075 10.595 7.455 19.508 3.757 3.253-1.346 5.563-3.444 7.807-5.47 2.337-2.117 4.545-4.119 7.553-4.986 3.46-.994 7.222-.093 10.088 2.41 2.448 2.14 7.326 5.578 12.48 4.55 2.627-.523 4.842-2.565 7.186-4.725 4.488-4.145 9.145-8.425 17.176-2.28l-.213.314c-7.806-5.965-12.343-1.784-16.73 2.259-2.382 2.196-4.634 4.261-7.357 4.813-5.301 1.056-10.282-2.448-12.779-4.631-2.774-2.426-6.423-3.293-9.76-2.335-2.931.845-5.1 2.817-7.412 4.905-2.26 2.048-4.6 4.167-7.906 5.539A14.471 14.471 0 0 1 60.166 39z" opacity=".879"/>
            <circle cx="85.892" cy="27" r="2" fill="#1DBCC0" fill-rule="nonzero"/>
            <path fill="#1DBCC0" fill-rule="nonzero" d="M53.892 59h12v1h-12zM81.892 59h12v1h-12zM108.892 59h12v1h-12zM53.486 77.484c0-3.816 2.85-6.748 6.356-6.748h.05V69h-.05c-4.385 0-7.95 3.71-7.95 8.484 0 2.499.993 4.875 2.724 6.516l1.13-1.23c-1.433-1.313-2.26-3.247-2.26-5.286z"/>
            <path fill="#5B6FB3" fill-rule="nonzero" d="M60.901 68v1.906c3.194.022 5.995 2.241 6.893 5.46.898 3.218-.32 6.674-2.996 8.503-2.677 1.83-6.178 1.598-8.616-.568l-1.29 1.35c3.02 2.775 7.42 3.127 10.807.866 3.386-2.261 4.95-6.595 3.84-10.645-1.11-4.05-4.629-6.848-8.641-6.872h.003zM114.408 70.594c3.816 0 6.748 2.85 6.748 6.356V77h1.736v-.05c0-4.383-3.71-7.95-8.484-7.95-2.499 0-4.876.993-6.516 2.724l1.23 1.13c1.313-1.433 3.247-2.26 5.286-2.26z" opacity=".5"/>
            <path fill="#1DBCC0" fill-rule="nonzero" d="M123.886 77.006h-1.805a7.228 7.228 0 0 1-5.173 6.892 7.179 7.179 0 0 1-8.056-2.996 7.262 7.262 0 0 1 .538-8.616L108.117 71a9.081 9.081 0 0 0-.82 10.807 8.979 8.979 0 0 0 10.085 3.84c3.837-1.11 6.487-4.629 6.51-8.641h-.006z"/>
            <path fill="#5B6FB3" fill-rule="nonzero" d="M92.107 67l-.359 1.852c2.642 1.099 4.331 3.767 4.331 6.878.001 3.703-2.649 6.84-6.208 7.348-3.56.508-6.937-1.767-7.913-5.331-.976-3.564.748-7.324 4.04-8.809l-.8-1.67c-4.085 1.896-6.196 6.6-4.95 11.036 1.246 4.436 5.47 7.25 9.906 6.604 4.437-.648 7.736-4.56 7.738-9.178 0-4.015-2.306-7.44-5.785-8.73z" opacity=".5"/>
            <path fill="#1DBCC0" fill-rule="nonzero" d="M88.269 69.749c.79 0 1.57.073 2.294.216l.329-.745a15.312 15.312 0 0 0-2.623-.22 17.01 17.01 0 0 0-3.377.33l.74.67c.83-.166 1.729-.252 2.637-.251z"/>
        </g>
    </g>
</svg>
