<svg
    id="Layer_1"
    data-name="Layer 1"
    xmlns="http://www.w3.org/2000/svg"
    viewBox="0 0 2074.56 222.3"
    width="253"
    height="27"
>
    <path d="M1309.74,37a74.71,74.71,0,1,0,74.71,74.71A74.71,74.71,0,0,0,1309.74,37Zm0,134.51a59.8,59.8,0,1,1,59.79-59.8A59.87,59.87,0,0,1,1309.74,171.49Z" />
    <path d="M1213.21,143.28a6.89,6.89,0,0,0-9.54,2,61.05,61.05,0,1,1,0-67.1,6.89,6.89,0,0,0,11.5-7.58,74.82,74.82,0,1,0,0,82.26A6.9,6.9,0,0,0,1213.21,143.28Z" />
    <path d="M1953.25,143.12a6.88,6.88,0,0,0-9.53,2,60.76,60.76,0,1,1,0-66.78,6.88,6.88,0,1,0,11.49-7.58,74.52,74.52,0,1,0,0,81.94A6.88,6.88,0,0,0,1953.25,143.12Z" />
    <path d="M1799.82,44.05a6.89,6.89,0,0,0-6.88-6.89h-72.69a6.89,6.89,0,0,0-6.88,6.89V179.66a6.89,6.89,0,0,0,6.88,6.89,6.62,6.62,0,0,0,1.34-.14,6.45,6.45,0,0,0,1.33.14h70a6.89,6.89,0,0,0,0-13.77h-63l-2.82-2.83V121.56h0l2.82-2.82h57.25a6.89,6.89,0,0,0,0-13.77H1730l-2.82-2.82h0V53.77h0l2.83-2.83h63A6.88,6.88,0,0,0,1799.82,44.05Z" />
    <path d="M2067.68,37.16h-90.39a6.89,6.89,0,1,0,0,13.77h35.47l2.83,2.84V179.33a6.89,6.89,0,0,0,13.77,0V53.76l2.82-2.83h35.49a6.89,6.89,0,0,0,0-13.77Z" />
    <path d="M1519.16,37.16a6.89,6.89,0,0,0-6.88,6.89V159.14h0v-5.29h-4L1422.14,39.9l-.09-.11a3,3,0,0,0-.24-.28,2.5,2.5,0,0,0-.22-.24c-.07-.08-.15-.15-.23-.23a2.1,2.1,0,0,0-.27-.24c-.07-.07-.15-.12-.22-.18a3.55,3.55,0,0,0-.31-.23l-.24-.16L1420,38l-.28-.15-.31-.14-.32-.13-.29-.11-.35-.1-.3-.08-.34-.06-.34-.05-.31,0-.38,0h-.29l-.4,0-.29,0-.38.06-.3.06-.35.09-.31.09-.32.12-.31.13-.29.14-.33.18-.25.15-.33.23a1,1,0,0,0-.13.09.39.39,0,0,0-.1.08l-.29.24a2.61,2.61,0,0,0-.24.22l-.23.23c-.08.09-.17.18-.24.27l-.19.23-.22.3c-.06.08-.11.17-.16.25s-.13.21-.19.31l-.15.29c0,.1-.1.2-.14.3s-.09.22-.14.34l-.1.27c0,.12-.07.25-.1.37s0,.18-.08.28l-.06.36a3.06,3.06,0,0,0,0,.32l0,.32c0,.12,0,.25,0,.38s0,.08,0,.13V179.66a6.89,6.89,0,1,0,13.77,0V64.57h0V69.9h4v0l86.13,113.94.08.09c.11.14.23.28.35.41l.16.18c.17.17.34.33.53.49l.17.12a4.25,4.25,0,0,0,.43.31c.08.06.16.1.24.15l.41.23.24.12.46.19.22.08a5.08,5.08,0,0,0,.52.15l.19,0,.6.1.14,0a6.3,6.3,0,0,0,.75.05h0a7.45,7.45,0,0,0,1-.07l.22,0a7,7,0,0,0,.93-.23l.12,0a8.41,8.41,0,0,0,.87-.37l.11-.05a7.82,7.82,0,0,0,.86-.55l.08,0,.1-.08.29-.24.23-.22.23-.24a2,2,0,0,0,.24-.26l.19-.23.22-.3.16-.25c.07-.1.13-.21.19-.31s.1-.2.15-.29.1-.2.14-.3.1-.23.14-.34.07-.18.1-.28.07-.24.1-.36.06-.19.08-.28l.06-.36a3.06,3.06,0,0,0,0-.32c0-.11,0-.21,0-.32s0-.25,0-.38,0-.08,0-.13V44.05A6.89,6.89,0,0,0,1519.16,37.16Z" />
    <path d="M1669.7,37.16a6.89,6.89,0,0,0-6.88,6.89V159.14h0v-5.29h-4L1572.68,39.9l-.09-.11-.24-.28a2.5,2.5,0,0,0-.22-.24l-.23-.23-.27-.24a2,2,0,0,0-.23-.18l-.3-.23-.24-.16-.32-.19-.29-.15-.3-.14-.33-.13-.28-.11-.36-.1-.29-.08-.35-.06-.33-.05-.31,0-.39,0H1567l-.41,0-.28,0-.38.06-.3.06-.35.09-.31.09-.32.12-.32.13-.29.14-.32.18-.26.15-.32.23-.14.09-.1.08-.29.24-.24.22-.22.23-.25.27-.18.23-.23.3c0,.08-.1.17-.16.25s-.13.21-.18.31a2.7,2.7,0,0,0-.15.29l-.15.3a3.42,3.42,0,0,0-.13.34c0,.09-.07.18-.1.27s-.07.25-.11.37,0,.18-.07.28,0,.24-.07.36,0,.21-.05.32,0,.21,0,.32,0,.25,0,.38,0,.08,0,.13V179.66a6.89,6.89,0,1,0,13.77,0V64.57h0V69.9h4v0l86.13,113.94.07.09c.11.14.23.28.35.41l.16.18c.17.17.35.33.53.49l.17.12a4.25,4.25,0,0,0,.43.31c.08.06.16.1.24.15l.41.23.25.12.45.19.23.08a4.44,4.44,0,0,0,.52.15l.19,0,.59.1.15,0a6.3,6.3,0,0,0,.75.05h0a7.48,7.48,0,0,0,1-.07l.21,0a7.17,7.17,0,0,0,.94-.23l.12,0a8.41,8.41,0,0,0,.87-.37l.1-.05a7,7,0,0,0,.86-.55l.08,0a.39.39,0,0,0,.1-.08l.29-.24.24-.22.23-.24.24-.26.18-.23.23-.3.16-.25.19-.31.15-.29c.05-.1.1-.2.14-.3s.09-.23.13-.34a2.33,2.33,0,0,0,.11-.28c0-.11.07-.24.1-.36a2.86,2.86,0,0,0,.07-.28c0-.12,0-.24.07-.36a3.06,3.06,0,0,0,0-.32l0-.32c0-.13,0-.25,0-.38V44.05A6.89,6.89,0,0,0,1669.7,37.16Z" />
    <path d="M375.56,35.66a75.06,75.06,0,1,0,75.05,75.06A75.05,75.05,0,0,0,375.56,35.66Zm0,127.06a52,52,0,1,1,52-52A52.06,52.06,0,0,1,375.56,162.72Z" />
    <path d="M665,36.5a11.53,11.53,0,0,0-14.91,6.59l-36.21,93.54H610L575.7,43.71a11.54,11.54,0,0,0-1.14-2.41.35.35,0,0,0,0-.08c-.18-.29-.37-.57-.58-.85l-.09-.1a9.19,9.19,0,0,0-.64-.76l-.09-.1c-.23-.23-.47-.46-.72-.68a.6.6,0,0,0-.08-.08c-.25-.22-.51-.42-.78-.62l-.1-.07a9,9,0,0,0-.83-.53l-.14-.08a8.13,8.13,0,0,0-.83-.43l-.24-.11c-.21-.09-.41-.18-.63-.26l-.16,0-.31-.1-.76-.23-.32-.06a7.14,7.14,0,0,0-.78-.15l-.38,0c-.24,0-.48-.06-.73-.07h-1.11c-.26,0-.53,0-.8.07l-.3,0c-.27,0-.55.1-.82.16l-.28.06-.78.23-.3.1-.16,0-.63.26-.24.11c-.28.13-.55.27-.82.42l-.15.09c-.28.16-.55.34-.81.52L558,38c-.26.2-.52.4-.76.61l-.11.09c-.24.22-.47.44-.69.67l-.11.12c-.22.23-.43.48-.63.73a1.47,1.47,0,0,1-.1.13c-.2.27-.39.54-.57.82a.36.36,0,0,1-.07.1,12,12,0,0,0-1.13,2.41l-34.28,92.92h-3.89L479.45,43.09A11.53,11.53,0,0,0,458,51.41l48.91,126.35a11.5,11.5,0,0,0,7,7.48,11.37,11.37,0,0,0,4,.72,11.52,11.52,0,0,0,10.81-7.54l36.07-97.74,36.06,97.74a11.52,11.52,0,0,0,21.84-.66L671.58,51.41A11.53,11.53,0,0,0,665,36.5Z" />
    <path d="M793.07,55.39a11.52,11.52,0,1,0-16.44-16.15l-64.2,65.35c-.27.28-.52.56-.76.86V47.19a11.53,11.53,0,1,0-23,0v127a11.53,11.53,0,1,0,23,0v-48h21.51l42.27,55.06a11.53,11.53,0,1,0,18.29-14L761,124.48l-15.19-20.94Z" />
    <path d="M1000,47.19a11.53,11.53,0,1,0-23,0v89.44h-4.1l-78.41-96.7,0,0a8.39,8.39,0,0,0-.56-.63l-.21-.23c-.13-.13-.26-.24-.4-.36a9.6,9.6,0,0,0-1-.86l-.27-.2c-.19-.13-.38-.24-.58-.35s-.25-.16-.39-.23-.32-.16-.49-.24l-.53-.25-.38-.14c-.23-.08-.45-.17-.69-.24l-.27-.08c-.43-.11-.86-.21-1.3-.28-.2,0-.4-.07-.61-.09h-.26a8.72,8.72,0,0,0-.9-.05h-.31c-.28,0-.56,0-.83,0l-.42.05-.7.11-.47.11-.63.16-.48.17c-.19.07-.39.13-.58.21l-.49.23-.53.25c-.17.09-.35.2-.52.31s-.3.17-.44.27a6.61,6.61,0,0,0-.6.44l-.29.2,0,0c-.21.17-.41.36-.61.55a11.22,11.22,0,0,0-1.51,1.73c-.05.07-.11.14-.15.21s-.26.41-.38.62l-.21.35c-.09.17-.17.34-.25.52s-.17.33-.24.51l-.14.39c-.09.23-.17.44-.24.67a2.29,2.29,0,0,0-.07.28,10.44,10.44,0,0,0-.34,1.7,1.2,1.2,0,0,0,0,.2c0,.1,0,.21,0,.31,0,.28,0,.57,0,.85v127a11.53,11.53,0,0,0,23.06,0V84.8h4.13l78.37,96.65,0,0a11.81,11.81,0,0,0,.82.91l.31.28c.19.18.39.35.59.52l.43.31c.18.14.37.27.56.39l.45.28.62.33.44.21c.24.11.48.2.73.29l.38.14c.28.09.57.17.86.24l.3.08c.33.07.67.12,1,.16a1.2,1.2,0,0,0,.2,0,9.87,9.87,0,0,0,1.22.07h0a9.77,9.77,0,0,0,1.08-.06l.34,0c.24,0,.48-.06.72-.11l.4-.08.64-.17c.14,0,.27-.07.4-.12l.64-.23.35-.14c.23-.1.45-.21.68-.33l.28-.14c.3-.17.61-.35.9-.55l.09-.06c.25-.17.49-.35.73-.54l0,0c.21-.17.41-.36.61-.55a11.22,11.22,0,0,0,1.51-1.73l.16-.21c.13-.2.25-.41.37-.62a4.05,4.05,0,0,0,.21-.35c.09-.17.17-.34.25-.52s.17-.33.24-.51l.15-.39c.08-.23.16-.44.23-.67s0-.18.08-.28a11.63,11.63,0,0,0,.34-1.7,1.62,1.62,0,0,1,0-.2c0-.1,0-.21,0-.31,0-.28,0-.56,0-.85v-127Z" />
    <path d="M830.54,35.66A11.53,11.53,0,0,0,819,47.19v127a11.53,11.53,0,1,0,23,0v-127A11.53,11.53,0,0,0,830.54,35.66Z" />
    <path d="M218.77,201.93l-29.36-29.35a99.17,99.17,0,0,0,0-122.89l29.35-29.35A11.91,11.91,0,1,0,201.87,3.49L172.48,32.88a99.16,99.16,0,0,0-122.54.23L20.34,3.51A11.91,11.91,0,0,0,3.49,20.36L33.12,50a99.15,99.15,0,0,0,0,122.37L3.54,202a11.91,11.91,0,0,0,0,16.86h0a11.92,11.92,0,0,0,16.85,0L50,189.23a99.15,99.15,0,0,0,122.56.17l29.38,29.39a11.92,11.92,0,1,0,16.86-16.86ZM111.36,186.65A75.08,75.08,0,0,1,67,172.19l34.09-34.1L84.25,121.24,50.18,155.31a75.24,75.24,0,0,1,0-88.27l34,34,16.85-16.85L67,50.15a75.24,75.24,0,0,1,88.45-.22L121.15,84.21,138,101.06l34.33-34.33a75.24,75.24,0,0,1,0,88.81l-34.32-34.32L121.2,138.07l34.28,34.28A75.07,75.07,0,0,1,111.36,186.65Z" />
    <circle
        cx="111.01"
        cy="111.03"
        r="11.9"
        transform="translate(-37.93 61.37) rotate(-26.57)"
    />
</svg>
