<?xml version="1.0" encoding="utf-8"?>
<!-- Generator: Adobe Illustrator 25.1.0, SVG Export Plug-In . SVG Version: 6.00 Build 0)  -->
<svg version="1.1" id="Calque_1" xmlns="http://www.w3.org/2000/svg" xmlns:xlink="http://www.w3.org/1999/xlink" x="0px" y="0px"
	 viewBox="0 0 128 128" style="enable-background:new 0 0 128 128;" xml:space="preserve">
<style type="text/css">
	.st0{fill:url(#SVGID_1_);}
	.st1{opacity:8.000000e-02;clip-path:url(#SVGID_3_);fill:#231F20;}
	.st2{fill:#1DBCC0;}
	.st3{fill:#EDC20F;}
</style>
<g>
	<g>
		<g>
			<g>
				<g>
					<linearGradient id="SVGID_1_" gradientUnits="userSpaceOnUse" x1="100.7807" y1="120.5753" x2="46.324" y2="26.2535">
						<stop  offset="0" style="stop-color:#EDC20F"/>
						<stop  offset="1" style="stop-color:#1DBCC0"/>
					</linearGradient>
					<path class="st0" d="M111.5,73.4c0,20.9-17,37.9-37.9,37.9s-37.9-17-37.9-37.9s17-37.9,37.9-37.9S111.5,52.5,111.5,73.4z
						 M73.6,19c-30.1,0-54.4,24.4-54.4,54.4s24.4,54.4,54.4,54.4S128,103.5,128,73.4S103.6,19,73.6,19z"/>
					<g>
						<defs>
							<path id="SVGID_2_" d="M111.5,73.4c0,20.9-17,37.9-37.9,37.9s-37.9-17-37.9-37.9s17-37.9,37.9-37.9S111.5,52.4,111.5,73.4z
								 M73.6,18.9c-30.1,0-54.4,24.4-54.4,54.4s24.4,54.4,54.4,54.4S128,103.5,128,73.4S103.6,18.9,73.6,18.9z"/>
						</defs>
						<clipPath id="SVGID_3_">
							<use xlink:href="#SVGID_2_"  style="overflow:visible;"/>
						</clipPath>
						
							<rect x="35" y="34.8" transform="matrix(0.9239 -0.3827 0.3827 0.9239 -22.4827 33.733)" class="st1" width="77.1" height="77.1"/>
						<rect x="35" y="34.8" class="st1" width="77.1" height="77.1"/>
						
							<rect x="35" y="34.8" transform="matrix(0.9239 0.3827 -0.3827 0.9239 33.6804 -22.5615)" class="st1" width="77.1" height="77.1"/>
						
							<rect x="35" y="34.8" transform="matrix(0.7071 0.7071 -0.7071 0.7071 73.4309 -30.5167)" class="st1" width="77.1" height="77.1"/>
					</g>
				</g>
			</g>
		</g>
		<path class="st2" d="M6.1,79.5c-3.3,0-6.1-2.7-6.1-6.1C0,32.9,32.9,0,73.4,0c3.3,0,6.1,2.7,6.1,6.1s-2.7,6.1-6.1,6.1
			c-33.8,0-61.3,27.5-61.3,61.3C12.1,76.8,9.4,79.5,6.1,79.5z"/>
		<path class="st3" d="M73.6,102.6c-16.2,0-29.5-13.2-29.5-29.5s13.2-29.5,29.5-29.5S103,56.9,103,73.2S89.8,102.6,73.6,102.6z
			 M73.6,55.8c-9.6,0-17.4,7.8-17.4,17.4S64,90.5,73.6,90.5s17.4-7.8,17.4-17.4S83.1,55.8,73.6,55.8z"/>
		<circle class="st2" cx="73.6" cy="73.4" r="7.9"/>
	</g>
</g>
</svg>
