<svg width="36" height="36" viewBox="0 0 200 180" fill="none" xmlns="http://www.w3.org/2000/svg">
<path d="M91.2398 183.301C73.1943 183.301 55.554 177.95 40.5497 167.924C25.5454 157.899 13.851 143.649 6.94521 126.977C0.0394716 110.305 -1.7674 91.9602 1.75308 74.2614C5.27357 56.5626 13.9633 40.3053 26.7234 27.5452C39.4835 14.7851 55.7408 6.09537 73.4396 2.57488C91.1384 -0.945611 109.484 0.861259 126.155 7.767C142.827 14.6727 157.077 26.3672 167.102 41.3715C177.128 56.3758 182.479 74.016 182.479 92.0615C182.452 116.251 172.83 139.442 155.725 156.547C138.621 173.652 115.43 183.273 91.2398 183.301ZM91.2398 5.32768C74.0855 5.32763 57.3164 10.4144 43.0531 19.9448C28.7898 29.4751 17.6729 43.021 11.1082 58.8695C4.54351 74.718 2.82584 92.1572 6.17243 108.982C9.51901 125.807 17.7795 141.261 29.9094 153.391C42.0393 165.521 57.4937 173.782 74.3184 177.128C91.143 180.475 108.582 178.757 124.431 172.193C140.279 165.628 153.825 154.511 163.356 140.248C172.886 125.985 177.973 109.216 177.973 92.0615C177.947 69.0664 168.801 47.0204 152.541 30.7603C136.281 14.5002 114.235 5.35379 91.2398 5.32768V5.32768Z" fill="black"/>
<path d="M71.9648 62.8149C69.4223 62.8098 66.9342 62.079 64.7927 60.7084C62.6513 59.3379 60.9456 57.3846 59.876 55.078C58.8065 52.7715 58.4175 50.2075 58.7549 47.6875C59.0923 45.1676 60.1421 42.7963 61.7807 40.8523C63.4194 38.9084 65.5789 37.4726 68.0054 36.7136C70.432 35.9547 73.0248 35.9042 75.479 36.5681C77.9333 37.2319 80.1471 38.5826 81.8602 40.4612C83.5733 42.3399 84.7145 44.6686 85.1498 47.1735V47.1735C85.7514 50.6623 84.9447 54.2473 82.9065 57.1421C80.8683 60.0368 77.7651 62.0049 74.2777 62.6147C73.5139 62.7474 72.7401 62.8144 71.9648 62.8149ZM71.9967 40.6099C70.1818 40.609 68.4106 41.1663 66.9231 42.2062C65.4356 43.246 64.304 44.7182 63.6815 46.423C63.059 48.1278 62.9758 49.9828 63.4432 51.7364C63.9107 53.4901 64.9061 55.0576 66.2945 56.2264C67.683 57.3952 69.3973 58.1087 71.2049 58.2702C73.0126 58.4318 74.8263 58.0335 76.4 57.1294C77.9736 56.2253 79.2312 54.8592 80.0022 53.2162C80.7732 51.5732 81.0202 49.7328 80.7099 47.9447C80.3508 45.8932 79.2808 44.0336 77.6875 42.6924C76.0942 41.3511 74.0794 40.6138 71.9967 40.6099V40.6099Z" fill="black"/>
<path d="M61.6483 146.42C59.1057 146.414 56.6174 145.684 54.4759 144.313C52.3343 142.942 50.6285 140.989 49.559 138.682C48.4894 136.376 48.1005 133.812 48.4379 131.292C48.7754 128.771 49.8252 126.4 51.4639 124.456C53.1027 122.512 55.2623 121.076 57.689 120.317C60.1157 119.558 62.7086 119.508 65.163 120.172C67.6173 120.836 69.8312 122.187 71.5443 124.066C73.2574 125.944 74.3986 128.273 74.8338 130.778V130.779C75.4351 134.267 74.6282 137.852 72.5901 140.747C70.5519 143.641 67.449 145.61 63.9617 146.219C63.1977 146.352 62.4237 146.419 61.6483 146.42ZM61.6961 124.213C61.1825 124.213 60.6697 124.258 60.1637 124.346C58.4397 124.645 56.8432 125.449 55.576 126.656C54.3089 127.863 53.428 129.418 53.0448 131.125C52.6617 132.833 52.7934 134.615 53.4234 136.248C54.0533 137.88 55.1532 139.289 56.584 140.297C58.0148 141.304 59.7121 141.865 61.4614 141.907C63.2107 141.95 64.9334 141.473 66.4116 140.537C67.8898 139.6 69.0571 138.247 69.766 136.647C70.4748 135.047 70.6933 133.273 70.3939 131.549V131.549C70.0374 129.499 68.9702 127.64 67.3797 126.299C65.7891 124.957 63.7769 124.219 61.6961 124.213Z" fill="black"/>
<path d="M140.052 113.703C137.509 113.702 135.019 112.975 132.875 111.607C130.731 110.239 129.022 108.288 127.949 105.982C126.877 103.676 126.485 101.111 126.82 98.5901C127.155 96.069 128.203 93.696 129.84 91.7502C131.478 89.8043 133.637 88.3666 136.064 87.6061C138.491 86.8456 141.085 86.7939 143.54 87.4571C145.995 88.1203 148.21 89.4709 149.924 91.3499C151.638 93.229 152.78 95.5584 153.215 98.0641V98.0647C153.547 99.9833 153.456 101.951 152.947 103.831C152.439 105.711 151.526 107.457 150.272 108.946C149.018 110.436 147.454 111.634 145.689 112.456C143.923 113.277 142 113.703 140.052 113.703V113.703ZM140.077 91.4989C138.261 91.4946 136.488 92.0491 134.998 93.087C133.508 94.125 132.374 95.5961 131.749 97.3009C131.124 99.0056 131.038 100.861 131.504 102.617C131.969 104.372 132.964 105.941 134.352 107.112C135.74 108.282 137.454 108.998 139.263 109.161C141.071 109.323 142.886 108.926 144.461 108.022C146.036 107.119 147.294 105.752 148.066 104.109C148.838 102.465 149.085 100.624 148.775 98.8347V98.8353C148.418 96.7853 147.351 94.9263 145.761 93.5848C144.17 92.2432 142.158 91.5047 140.077 91.4989V91.4989Z" fill="black"/>
<path d="M67.0429 59.6115L59.3966 121.528L63.8684 122.08L71.5147 60.1638L67.0429 59.6115Z" fill="black"/>
<path d="M129.35 103.337L70.8946 126.716L72.5678 130.9L131.023 107.521L129.35 103.337Z" fill="black"/>
<path d="M84.2124 52.5033L81.3799 56.0072L129.612 94.9972L132.445 91.4933L84.2124 52.5033Z" fill="black"/>
</svg>
