<svg width="184" height="50" viewBox="0 0 721 184" fill="none" xmlns="http://www.w3.org/2000/svg">
<path d="M243.272 121.494C239.428 120.348 235.876 118.386 232.86 115.742C232.398 115.321 232.032 114.807 231.786 114.233C231.54 113.659 231.42 113.038 231.434 112.414C231.418 111.574 231.686 110.753 232.194 110.084C232.392 109.784 232.66 109.537 232.975 109.363C233.29 109.189 233.642 109.094 234.002 109.086C234.977 109.143 235.91 109.509 236.664 110.131C242.406 114.644 249.518 117.059 256.821 116.977C262.271 116.977 266.455 115.931 269.371 113.84C270.793 112.838 271.939 111.494 272.704 109.932C273.468 108.37 273.826 106.64 273.745 104.903C273.787 103.911 273.622 102.922 273.262 101.997C272.902 101.072 272.354 100.232 271.653 99.53C270.071 98.0545 268.19 96.9358 266.138 96.2495C263.116 95.2177 260.036 94.3608 256.915 93.6831C252.564 92.7344 248.289 91.4629 244.127 89.879C240.996 88.6881 238.216 86.7262 236.046 84.1751C233.889 81.4157 232.793 77.975 232.955 74.4768C232.898 70.8608 233.979 67.3183 236.046 64.3506C238.23 61.3023 241.229 58.93 244.698 57.5049C248.716 55.8273 253.038 55.0017 257.391 55.0803C261.614 55.0452 265.811 55.7366 269.799 57.1242C273.403 58.3484 276.697 60.3441 279.45 62.9722C279.916 63.3949 280.291 63.9078 280.552 64.4799C280.814 65.052 280.956 65.6712 280.971 66.3C280.986 67.1397 280.719 67.9602 280.21 68.6289C280.012 68.9287 279.744 69.1761 279.43 69.35C279.115 69.5239 278.763 69.6192 278.404 69.6277C277.41 69.5235 276.459 69.1631 275.646 68.5816C273.06 66.3623 270.14 64.5653 266.994 63.2572C263.911 62.174 260.658 61.6585 257.391 61.7358C252.129 61.7358 248.04 62.8293 245.126 65.0162C243.7 66.0697 242.556 67.4575 241.793 69.0574C241.03 70.6573 240.673 72.4202 240.752 74.1909C240.668 75.6789 240.98 77.1626 241.657 78.4906C242.334 79.8186 243.35 80.9435 244.603 81.7506C247.17 83.4304 251.115 84.9041 256.44 86.1718C262.208 87.5667 266.74 88.8501 270.037 90.0221C273.165 91.0884 275.988 92.8994 278.261 95.2991C280.448 97.6445 281.541 100.782 281.541 104.712C281.603 108.255 280.519 111.724 278.451 114.601C276.224 117.583 273.212 119.887 269.752 121.257C265.677 122.905 261.31 123.713 256.915 123.633C252.282 123.652 247.677 122.93 243.272 121.494Z" fill="black"/>
<path d="M309.97 116.787C305.468 112.224 303.218 105.505 303.218 96.6302V59.3585C303.193 58.8301 303.273 58.3019 303.452 57.8042C303.632 57.3066 303.908 56.8493 304.265 56.4587C304.637 56.087 305.084 55.7977 305.575 55.6093C306.066 55.421 306.592 55.3378 307.117 55.3652C307.628 55.3439 308.137 55.4302 308.612 55.6186C309.087 55.807 309.517 56.0932 309.874 56.4587C310.23 56.8495 310.506 57.3068 310.686 57.8044C310.865 58.302 310.945 58.8301 310.92 59.3585V97.2957C310.92 103.825 312.521 108.737 315.722 112.033C318.922 115.33 323.629 116.978 329.841 116.977C336.052 116.977 340.743 115.329 343.914 112.033C347.082 108.739 348.666 103.826 348.667 97.2957V59.3585C348.643 58.8262 348.727 58.2945 348.915 57.7959C349.103 57.2974 349.391 56.8423 349.761 56.4587C350.535 55.755 351.543 55.3651 352.589 55.3651C353.635 55.3651 354.644 55.755 355.418 56.4587C355.775 56.8496 356.05 57.3069 356.23 57.8045C356.409 58.3021 356.489 58.8301 356.464 59.3585V96.6302C356.464 105.442 354.198 112.145 349.666 116.74C345.132 121.337 338.524 123.634 329.841 123.633C321.094 123.633 314.47 121.351 309.97 116.787Z" fill="black"/>
<path d="M429.058 94.1583C431.258 97.191 432.379 100.873 432.243 104.617C432.243 110.512 430.31 115.029 426.444 118.166C422.576 121.304 417.093 122.873 409.994 122.873H386.034C385.506 122.898 384.977 122.819 384.479 122.639C383.982 122.46 383.524 122.183 383.134 121.826C382.768 121.469 382.481 121.039 382.293 120.564C382.105 120.089 382.018 119.58 382.04 119.07V59.6434C382.019 59.1329 382.105 58.6236 382.293 58.1486C382.482 57.6736 382.768 57.2436 383.134 56.8866C383.525 56.53 383.982 56.2541 384.48 56.0746C384.978 55.8951 385.506 55.8155 386.034 55.8404H408.948C415.856 55.8404 421.213 57.3618 425.017 60.4047C428.82 63.4475 430.721 67.7579 430.722 73.3361C430.809 76.6622 429.825 79.9284 427.917 82.6537C425.943 85.3303 423.21 87.3511 420.073 88.4533C423.632 89.2716 426.804 91.2852 429.058 94.1583V94.1583ZM389.742 85.6008H407.807C412.814 85.6008 416.601 84.5865 419.17 82.558C421.736 80.5306 423.02 77.5831 423.02 73.7156C423.02 66.1097 417.949 62.3067 407.807 62.3067H389.742V85.6008ZM420.88 113.508C423.384 111.575 424.636 108.548 424.637 104.426C424.637 96.1879 419.503 92.0678 409.234 92.066H389.742V116.407H409.234C414.495 116.407 418.377 115.441 420.88 113.508V113.508Z" fill="black"/>
<path d="M463.382 121.494C459.538 120.348 455.986 118.386 452.97 115.742C452.508 115.321 452.141 114.807 451.895 114.233C451.65 113.659 451.53 113.038 451.544 112.414C451.528 111.574 451.796 110.753 452.304 110.084C452.502 109.784 452.77 109.537 453.085 109.363C453.4 109.189 453.752 109.094 454.112 109.086C455.087 109.143 456.02 109.509 456.774 110.131C462.516 114.644 469.628 117.059 476.93 116.977C482.381 116.977 486.565 115.931 489.481 113.84C490.903 112.838 492.049 111.494 492.814 109.932C493.578 108.37 493.936 106.64 493.855 104.903C493.897 103.911 493.732 102.922 493.372 101.997C493.012 101.072 492.464 100.232 491.763 99.53C490.18 98.0545 488.3 96.9358 486.248 96.2495C483.226 95.2177 480.146 94.3608 477.025 93.6831C472.674 92.7344 468.399 91.4629 464.237 89.879C461.106 88.6881 458.326 86.7262 456.156 84.1751C453.999 81.4157 452.903 77.975 453.065 74.4768C453.008 70.8608 454.089 67.3183 456.156 64.3506C458.34 61.3022 461.338 58.93 464.808 57.5049C468.826 55.8273 473.148 55.0018 477.501 55.0803C481.724 55.0452 485.921 55.7366 489.909 57.1242C493.513 58.3484 496.807 60.3441 499.56 62.9722C500.026 63.3949 500.401 63.9078 500.662 64.4799C500.924 65.052 501.066 65.6712 501.08 66.3C501.096 67.1397 500.828 67.9602 500.32 68.6289C500.122 68.9287 499.854 69.1761 499.54 69.35C499.225 69.5239 498.873 69.6192 498.514 69.6277C497.52 69.5235 496.569 69.1631 495.756 68.5816C493.17 66.3623 490.25 64.5653 487.104 63.2572C484.021 62.174 480.768 61.6586 477.501 61.7358C472.239 61.7358 468.15 62.8293 465.236 65.0162C463.81 66.0697 462.666 67.4575 461.903 69.0574C461.14 70.6573 460.783 72.4202 460.862 74.1909C460.778 75.6789 461.09 77.1626 461.767 78.4906C462.443 79.8186 463.46 80.9435 464.713 81.7506C467.279 83.4304 471.225 84.9041 476.55 86.1718C482.318 87.5667 486.85 88.8501 490.147 90.0221C493.275 91.0884 496.098 92.8994 498.371 95.2991C500.558 97.6445 501.651 100.782 501.651 104.712C501.713 108.255 500.629 111.724 498.561 114.601C496.334 117.583 493.322 119.887 489.862 121.257C485.787 122.905 481.42 123.713 477.025 123.633C472.392 123.652 467.787 122.93 463.382 121.494V121.494Z" fill="black"/>
<path d="M539.636 122.254C539.266 121.871 538.978 121.416 538.79 120.917C538.602 120.418 538.518 119.887 538.542 119.354V62.4959H518.1C517.136 62.5556 516.186 62.2504 515.438 61.6411C514.826 60.963 514.487 60.0821 514.487 59.1687C514.487 58.2554 514.826 57.3744 515.438 56.6963C516.186 56.0866 517.136 55.7811 518.1 55.8404H566.876C567.839 55.7813 568.79 56.0868 569.538 56.6963C570.151 57.3741 570.49 58.2552 570.49 59.1687C570.49 60.0823 570.151 60.9633 569.538 61.6411C568.79 62.2503 567.839 62.5554 566.876 62.4959H546.433V119.354C546.458 119.883 546.379 120.411 546.2 120.908C546.02 121.406 545.745 121.863 545.388 122.254C545.015 122.626 544.569 122.915 544.078 123.103C543.586 123.291 543.061 123.375 542.536 123.348C542.003 123.372 541.472 123.288 540.973 123.1C540.475 122.912 540.02 122.624 539.636 122.254V122.254Z" fill="black"/>
<path d="M640.562 120.21C640.573 120.657 640.48 121.099 640.29 121.504C640.1 121.908 639.819 122.262 639.469 122.539C639.027 122.9 638.513 123.163 637.962 123.309C637.41 123.456 636.834 123.483 636.271 123.388C635.709 123.294 635.173 123.08 634.699 122.762C634.226 122.443 633.826 122.027 633.526 121.541L620.786 101.385C619.542 99.1992 617.778 97.3539 615.651 96.0119C613.403 94.9268 610.919 94.4205 608.426 94.5389H596.445V119.354C596.47 119.883 596.391 120.411 596.211 120.908C596.032 121.406 595.756 121.863 595.4 122.254C595.042 122.62 594.612 122.906 594.137 123.094C593.662 123.283 593.153 123.369 592.642 123.348C592.116 123.375 591.591 123.292 591.1 123.103C590.608 122.915 590.162 122.626 589.789 122.254C589.433 121.864 589.156 121.406 588.977 120.909C588.797 120.411 588.718 119.883 588.743 119.354V59.6434C588.722 59.1329 588.808 58.6236 588.996 58.1486C589.185 57.6736 589.471 57.2436 589.837 56.8866C590.228 56.53 590.685 56.2541 591.183 56.0746C591.681 55.895 592.209 55.8155 592.738 55.8404H616.317C623.606 55.8404 629.168 57.4568 633.004 60.6896C636.839 63.9227 638.756 68.6769 638.756 74.9521C638.756 80.2764 637.219 84.555 634.145 87.7878C631.07 91.0209 626.68 92.986 620.977 93.6831C622.563 94.1923 624.021 95.0352 625.255 96.1549C626.734 97.5579 628.014 99.1573 629.058 100.908L639.897 118.023C640.326 118.673 640.557 119.432 640.562 120.21ZM615.651 88.0727C620.848 88.0727 624.73 86.9954 627.299 84.8407C629.866 82.6856 631.15 79.421 631.15 75.0467C631.15 70.7377 629.882 67.5368 627.346 65.4441C624.81 63.3518 620.912 62.306 615.651 62.3067H596.445V88.0727L615.651 88.0727Z" fill="black"/>
<path d="M721 120.02C721.008 120.473 720.913 120.922 720.724 121.333C720.535 121.745 720.255 122.108 719.906 122.397C719.183 123.028 718.251 123.367 717.292 123.348C716.565 123.379 715.847 123.173 715.247 122.762C714.647 122.35 714.197 121.755 713.964 121.066L707.213 105.663H671.368L664.522 121.066C664.289 121.755 663.838 122.35 663.238 122.761C662.638 123.172 661.921 123.378 661.194 123.348C660.213 123.361 659.263 123.005 658.532 122.35C658.173 122.057 657.884 121.687 657.686 121.267C657.489 120.848 657.388 120.389 657.39 119.925C657.396 119.395 657.526 118.874 657.771 118.404L684.964 57.9328C685.299 57.0973 685.901 56.3956 686.675 55.9361C687.424 55.4958 688.278 55.2658 689.147 55.2706C690.054 55.258 690.945 55.5054 691.715 55.9835C692.466 56.4491 693.062 57.1276 693.427 57.9328L720.619 118.404C720.871 118.905 721.002 119.459 721 120.02V120.02ZM674.22 99.1977H704.36L689.243 65.0635L674.22 99.1977Z" fill="black"/>
<path d="M91.2398 183.301C73.1943 183.301 55.554 177.95 40.5497 167.924C25.5454 157.899 13.851 143.649 6.94521 126.977C0.0394716 110.305 -1.7674 91.9602 1.75308 74.2614C5.27357 56.5626 13.9633 40.3053 26.7234 27.5452C39.4835 14.7851 55.7408 6.09537 73.4396 2.57488C91.1384 -0.945611 109.484 0.861259 126.155 7.767C142.827 14.6727 157.077 26.3672 167.102 41.3715C177.128 56.3758 182.479 74.016 182.479 92.0615C182.452 116.251 172.83 139.442 155.725 156.547C138.621 173.652 115.43 183.273 91.2398 183.301ZM91.2398 5.32768C74.0855 5.32763 57.3164 10.4144 43.0531 19.9448C28.7898 29.4751 17.6729 43.021 11.1082 58.8695C4.54351 74.718 2.82584 92.1572 6.17243 108.982C9.51901 125.807 17.7795 141.261 29.9094 153.391C42.0393 165.521 57.4937 173.782 74.3184 177.128C91.143 180.475 108.582 178.757 124.431 172.193C140.279 165.628 153.825 154.511 163.356 140.248C172.886 125.985 177.973 109.216 177.973 92.0615C177.947 69.0664 168.801 47.0204 152.541 30.7603C136.281 14.5002 114.235 5.35379 91.2398 5.32768V5.32768Z" fill="black"/>
<path d="M71.9648 62.8149C69.4223 62.8098 66.9342 62.079 64.7927 60.7084C62.6513 59.3379 60.9456 57.3846 59.876 55.078C58.8065 52.7715 58.4175 50.2075 58.7549 47.6875C59.0923 45.1676 60.1421 42.7963 61.7807 40.8523C63.4194 38.9084 65.5789 37.4726 68.0054 36.7136C70.432 35.9547 73.0248 35.9042 75.479 36.5681C77.9333 37.2319 80.1471 38.5826 81.8602 40.4612C83.5733 42.3399 84.7145 44.6686 85.1498 47.1735V47.1735C85.7514 50.6623 84.9447 54.2473 82.9065 57.1421C80.8683 60.0368 77.7651 62.0049 74.2777 62.6147C73.5139 62.7474 72.7401 62.8144 71.9648 62.8149ZM71.9967 40.6099C70.1818 40.609 68.4106 41.1663 66.9231 42.2062C65.4356 43.246 64.304 44.7182 63.6815 46.423C63.059 48.1278 62.9758 49.9828 63.4432 51.7364C63.9107 53.4901 64.9061 55.0576 66.2945 56.2264C67.683 57.3952 69.3973 58.1087 71.2049 58.2702C73.0126 58.4318 74.8263 58.0335 76.4 57.1294C77.9736 56.2253 79.2312 54.8592 80.0022 53.2162C80.7732 51.5732 81.0202 49.7328 80.7099 47.9447C80.3508 45.8932 79.2808 44.0336 77.6875 42.6924C76.0942 41.3511 74.0794 40.6138 71.9967 40.6099V40.6099Z" fill="black"/>
<path d="M61.6483 146.42C59.1057 146.414 56.6174 145.684 54.4759 144.313C52.3343 142.942 50.6285 140.989 49.559 138.682C48.4894 136.376 48.1005 133.812 48.4379 131.292C48.7754 128.771 49.8252 126.4 51.4639 124.456C53.1027 122.512 55.2623 121.076 57.689 120.317C60.1157 119.558 62.7086 119.508 65.163 120.172C67.6173 120.836 69.8312 122.187 71.5443 124.066C73.2574 125.944 74.3986 128.273 74.8338 130.778V130.779C75.4351 134.267 74.6282 137.852 72.5901 140.747C70.5519 143.641 67.449 145.61 63.9617 146.219C63.1977 146.352 62.4237 146.419 61.6483 146.42ZM61.6961 124.213C61.1825 124.213 60.6697 124.258 60.1637 124.346C58.4397 124.645 56.8432 125.449 55.576 126.656C54.3089 127.863 53.428 129.418 53.0448 131.125C52.6617 132.833 52.7934 134.615 53.4234 136.248C54.0533 137.88 55.1532 139.289 56.584 140.297C58.0148 141.304 59.7121 141.865 61.4614 141.907C63.2107 141.95 64.9334 141.473 66.4116 140.537C67.8898 139.6 69.0571 138.247 69.766 136.647C70.4748 135.047 70.6933 133.273 70.3939 131.549V131.549C70.0374 129.499 68.9702 127.64 67.3797 126.299C65.7891 124.957 63.7769 124.219 61.6961 124.213Z" fill="black"/>
<path d="M140.052 113.703C137.509 113.702 135.019 112.975 132.875 111.607C130.731 110.239 129.022 108.288 127.949 105.982C126.877 103.676 126.485 101.111 126.82 98.5901C127.155 96.069 128.203 93.696 129.84 91.7502C131.478 89.8043 133.637 88.3666 136.064 87.6061C138.491 86.8456 141.085 86.7939 143.54 87.4571C145.995 88.1203 148.21 89.4709 149.924 91.3499C151.638 93.229 152.78 95.5584 153.215 98.0641V98.0647C153.547 99.9833 153.456 101.951 152.947 103.831C152.439 105.711 151.526 107.457 150.272 108.946C149.018 110.436 147.454 111.634 145.689 112.456C143.923 113.277 142 113.703 140.052 113.703V113.703ZM140.077 91.4989C138.261 91.4946 136.488 92.0491 134.998 93.087C133.508 94.125 132.374 95.5961 131.749 97.3009C131.124 99.0056 131.038 100.861 131.504 102.617C131.969 104.372 132.964 105.941 134.352 107.112C135.74 108.282 137.454 108.998 139.263 109.161C141.071 109.323 142.886 108.926 144.461 108.022C146.036 107.119 147.294 105.752 148.066 104.109C148.838 102.465 149.085 100.624 148.775 98.8347V98.8353C148.418 96.7853 147.351 94.9263 145.761 93.5848C144.17 92.2432 142.158 91.5047 140.077 91.4989V91.4989Z" fill="black"/>
<path d="M67.0429 59.6115L59.3966 121.528L63.8684 122.08L71.5147 60.1638L67.0429 59.6115Z" fill="black"/>
<path d="M129.35 103.337L70.8946 126.716L72.5678 130.9L131.023 107.521L129.35 103.337Z" fill="black"/>
<path d="M84.2124 52.5033L81.3799 56.0072L129.612 94.9972L132.445 91.4933L84.2124 52.5033Z" fill="black"/>
</svg>
